<svg version="1.1" id="Layer_1" xmlns="http://www.w3.org/2000/svg" xmlns:xlink="http://www.w3.org/1999/xlink" x="0px" y="0px"
	 width="100%" viewBox="0 0 1200 675" enable-background="new 0 0 1200 675" xml:space="preserve">
<path fill="#000421" opacity="1.000000" stroke="none" 
	d="
M884.000000,676.000000 
	C589.333374,676.000000 295.166687,676.000000 1.000040,676.000000 
	C1.000026,451.000031 1.000026,226.000061 1.000013,1.000070 
	C400.999969,1.000046 800.999939,1.000046 1201.000000,1.000023 
	C1201.000000,225.999939 1201.000000,450.999878 1201.000000,675.999878 
	C1095.500000,676.000000 990.000000,676.000000 884.000000,676.000000 
M76.213844,628.232605 
	C72.985130,629.056946 72.310333,633.125854 74.029770,636.857422 
	C74.784798,634.945862 75.871735,632.194092 77.733055,629.756409 
	C78.708549,632.548889 79.684044,635.341370 80.659538,638.133850 
	C81.554939,636.469849 81.516594,634.623840 81.917046,632.878601 
	C82.165291,631.796753 83.079651,630.867737 83.695000,629.870117 
	C84.367081,630.816833 85.390152,631.681824 85.633789,632.728333 
	C86.060966,634.563354 86.010368,636.509583 86.159927,638.409241 
	C86.695633,638.379272 87.231346,638.349304 87.767052,638.319397 
	C87.767052,635.633301 88.055145,632.898987 87.617744,630.286133 
	C87.454887,629.313232 85.656883,628.049438 84.496605,627.925110 
	C82.043770,627.662231 79.519867,628.062317 76.213844,628.232605 
M899.044312,268.254059 
	C898.993408,267.174133 898.942444,266.094177 899.038086,264.133148 
	C898.984253,261.754700 898.930420,259.376282 899.046204,256.159973 
	C898.079590,252.677765 897.113037,249.195557 896.036072,245.179810 
	C895.673157,244.789001 895.310242,244.398178 894.814270,243.424973 
	C894.226868,242.914154 893.639526,242.403320 892.770325,241.261505 
	C888.322998,239.736237 883.902771,236.993164 879.423767,236.893829 
	C858.626343,236.432541 837.812744,236.703918 816.853271,235.820724 
	C816.765869,223.900085 816.632507,211.979568 816.606140,200.058792 
	C816.586121,191.036194 812.892517,184.464752 804.454346,180.879745 
	C804.454346,180.879745 804.334045,180.999329 803.444458,180.565430 
	C802.475708,180.374298 801.506897,180.183167 799.918640,179.630219 
	C764.324097,179.576797 728.729492,179.521011 693.134949,179.488998 
	C692.496338,179.488419 691.857422,179.772308 690.517456,179.817047 
	C690.045410,179.826492 689.573425,179.835953 688.796021,179.075378 
	C688.483948,176.789047 687.984436,174.509811 687.897461,172.214966 
	C687.695862,166.893341 688.077576,161.524216 687.528809,156.246506 
	C686.455994,145.928528 678.991333,139.351578 668.700989,139.349640 
	C560.256165,139.329163 451.811371,139.331451 343.366577,139.364975 
	C332.164703,139.368439 324.340271,146.829987 324.205292,157.967636 
	C323.910797,182.267532 323.790588,206.570648 323.780365,230.872528 
	C323.772888,248.674713 324.127350,266.476807 324.187378,284.279358 
	C324.259766,305.753235 324.139374,327.227844 324.256683,348.701324 
	C324.269836,351.102631 324.853638,353.712341 325.914978,355.858307 
	C329.670471,363.451599 335.931000,366.904358 344.478210,366.877289 
	C378.127380,366.770691 411.777191,366.808258 445.426453,366.907471 
	C448.175598,366.915588 450.922180,367.792969 453.580017,369.164673 
	C453.625366,374.746063 453.670746,380.327484 453.385498,386.532898 
	C453.623962,388.507263 453.862427,390.481598 454.233276,393.196808 
	C458.209015,402.859650 463.703918,406.620148 474.140900,406.666351 
	C485.637970,406.717224 497.135742,406.632141 508.632568,406.707092 
	C517.783264,406.766754 526.933044,406.978058 536.037476,407.895355 
	C536.122681,408.931671 536.207886,409.968018 536.105347,411.924072 
	C536.101257,421.692841 536.025330,431.462402 536.136902,441.229858 
	C536.170410,444.159607 536.726501,447.083374 536.988342,450.719971 
	C538.315186,452.836243 539.642029,454.952515 541.104980,457.548248 
	C541.298401,457.855591 541.576599,458.016479 542.226379,458.611420 
	C542.754333,458.960541 543.282288,459.309631 544.102173,460.119934 
	C544.741150,460.406555 545.380066,460.693176 546.490540,461.523956 
	C549.864624,462.191528 553.217407,463.271179 556.616882,463.446289 
	C565.367737,463.897034 574.139160,463.947174 582.862915,464.610535 
	C582.862915,464.610535 583.077820,465.011383 582.919373,465.934052 
	C583.645020,472.622131 584.370728,479.310181 585.143738,486.682861 
	C589.200012,493.495941 595.267822,496.243378 603.101074,496.239014 
	C710.547058,496.179413 817.993042,496.205536 925.439026,496.192780 
	C938.315063,496.191254 945.923035,488.556580 945.924988,475.685608 
	C945.934387,413.716797 945.933350,351.748016 945.889709,289.779236 
	C945.888306,287.837097 945.382141,285.895294 945.110046,283.207428 
	C942.742920,274.967102 937.096680,270.110718 928.778076,269.472565 
	C920.899048,268.868164 912.924805,269.505219 904.361877,269.371216 
	C902.579346,269.270905 900.796875,269.170593 899.044312,268.254059 
M57.863319,630.483521 
	C56.754147,633.424255 49.600914,631.402893 52.211704,636.740051 
	C52.964737,638.279480 57.181812,638.124390 59.936794,638.776062 
	C60.300999,635.138428 60.572472,632.427002 60.956280,628.593567 
	C65.699097,636.259033 65.903969,638.247559 62.954384,641.698486 
	C66.989548,641.912781 70.097778,636.568970 70.112961,627.595154 
	C68.991455,629.798096 67.869949,632.001038 66.543968,634.605652 
	C65.526184,632.013062 64.700157,629.908875 64.420586,629.196716 
	C61.629738,628.700134 59.960751,628.583252 58.412693,628.088196 
	C55.645931,627.203491 53.801598,627.920410 52.671932,630.607239 
	C54.210567,630.383362 55.749207,630.159424 57.863319,630.483521 
M100.182541,634.648804 
	C102.071648,632.153442 103.179695,628.301270 108.081795,630.518555 
	C108.351357,633.040100 108.644913,635.786133 108.938469,638.532166 
	C109.678337,638.443970 110.418213,638.355774 111.158089,638.267578 
	C110.608505,634.990845 111.208633,630.182312 109.283928,628.737610 
	C104.401360,625.072815 103.017433,630.822632 100.470421,635.139526 
	C99.531754,630.213379 98.163567,626.545654 93.687759,628.056030 
	C92.072220,628.601257 90.154976,631.528870 90.310867,633.187439 
	C90.490974,635.103699 92.457581,637.638489 94.283241,638.417908 
	C96.651230,639.428772 99.134872,638.230713 100.182541,634.648804 
M41.076397,624.307922 
	C38.760765,629.013245 40.113331,633.691528 40.234264,638.378906 
	C40.695061,638.412964 41.155857,638.447021 41.616653,638.481079 
	C41.977837,636.902100 42.339024,635.323059 42.694447,633.769287 
	C43.907814,633.644775 45.165581,633.890747 45.818497,633.373413 
	C47.339775,632.167908 49.767956,630.460754 49.627022,629.203735 
	C49.433338,627.476196 47.402740,625.713501 45.768482,624.486206 
	C44.901226,623.834900 43.209084,624.282043 41.076397,624.307922 
M122.936844,631.213013 
	C124.513908,630.768677 126.090965,630.324402 127.514183,629.923401 
	C125.710732,627.022705 120.518707,626.949402 120.434219,630.316895 
	C120.394127,631.915039 122.316483,633.562439 123.468414,635.374084 
	C122.330849,635.536377 121.251640,635.690308 120.172424,635.844238 
	C120.139603,636.405090 120.106773,636.965942 120.073944,637.526794 
	C122.224152,637.740295 124.406013,638.243896 126.507904,638.014587 
	C127.274643,637.930969 128.533600,635.298645 128.410721,635.194458 
	C126.897728,633.912048 125.170097,632.882874 122.936844,631.213013 
M113.087151,629.415222 
	C113.396431,631.282959 113.404114,633.274780 114.106285,634.980774 
	C114.715439,636.460876 116.111183,637.617310 117.247192,639.025757 
	C117.247192,634.848938 117.247192,631.681946 117.247192,627.644958 
	C117.094978,627.470520 116.121956,626.355286 114.995186,625.063782 
	C114.199142,626.395386 113.486366,627.587708 113.087151,629.415222 
z"/>
<path fill="#4077EF" opacity="1.000000" stroke="none" 
	d="
M453.716125,385.908875 
	C453.670746,380.327484 453.625366,374.746063 453.855103,368.448364 
	C454.734192,367.391022 455.338196,367.050049 456.370728,366.779938 
	C458.231781,366.814667 459.664276,366.778534 461.551636,366.803253 
	C475.486145,366.887146 488.965759,366.928070 502.445374,366.930115 
	C557.363953,366.938538 612.282471,366.939178 667.201050,366.932037 
	C676.905579,366.930786 684.602417,362.876587 686.672668,353.799591 
	C688.503723,345.771423 687.346924,337.059113 687.439392,328.648132 
	C687.442627,328.361023 686.691772,328.065613 686.279419,327.321106 
	C684.821533,316.313141 689.177307,305.755981 686.459961,294.954559 
	C686.528137,293.736908 686.390686,292.766327 686.252808,291.340485 
	C686.257690,284.347382 686.263000,277.809540 686.602661,271.094971 
	C686.712463,268.185272 686.487976,265.452209 686.259644,262.268768 
	C686.238586,254.986282 686.077881,248.150345 686.262512,241.323730 
	C686.359863,237.726608 687.437195,234.141586 687.397400,230.558624 
	C687.340515,225.436035 686.665466,220.320297 686.459961,214.954620 
	C686.528137,213.736984 686.390686,212.766388 686.253296,211.357452 
	C686.281677,208.017838 686.309998,205.116577 686.691284,202.035995 
	C687.356140,197.855377 687.624451,193.850067 687.993225,189.854034 
	C688.301636,186.512177 688.727478,183.181183 689.101318,179.845398 
	C689.573425,179.835953 690.045410,179.826492 691.303589,179.939423 
	C728.239258,180.038528 764.388672,180.015289 800.538147,179.992035 
	C801.506897,180.183167 802.475708,180.374298 803.883301,180.777069 
	C804.322205,180.988724 804.323120,180.991425 804.323120,180.991425 
	C812.892517,184.464752 816.586121,191.036194 816.606140,200.058792 
	C816.632507,211.979568 816.765869,223.900085 816.890015,236.754227 
	C816.909058,286.635193 816.901672,335.582642 816.867615,384.530121 
	C816.857483,399.055786 809.087219,406.888184 794.743652,406.889221 
	C711.332336,406.895264 627.921082,406.891418 544.509766,406.903656 
	C542.017761,406.904022 539.525818,407.044556 536.796143,407.106812 
	C536.558411,407.093872 536.083191,407.122040 536.083191,407.122040 
	C526.933044,406.978058 517.783264,406.766754 508.632568,406.707092 
	C497.135742,406.632141 485.637970,406.717224 474.140900,406.666351 
	C463.703918,406.620148 458.209015,402.859650 454.190186,392.432312 
	C454.003448,389.748199 453.859802,387.828522 453.716125,385.908875 
z"/>
<path fill="#8EABE7" opacity="1.000000" stroke="none" 
	d="
M537.033813,407.119781 
	C539.525818,407.044556 542.017761,406.904022 544.509766,406.903656 
	C627.921082,406.891418 711.332336,406.895264 794.743652,406.889221 
	C809.087219,406.888184 816.857483,399.055786 816.867615,384.530121 
	C816.901672,335.582642 816.909058,286.635193 816.965820,237.200378 
	C837.812744,236.703918 858.626343,236.432541 879.423767,236.893829 
	C883.902771,236.993164 888.322998,239.736237 892.948120,241.891418 
	C893.733093,243.016678 894.340149,243.512024 894.947266,244.007355 
	C895.310242,244.398178 895.673157,244.789001 896.066284,245.873474 
	C897.023132,250.044022 897.949829,253.520935 898.876465,256.997833 
	C898.930420,259.376282 898.984253,261.754700 898.600647,264.711212 
	C897.778320,266.824554 897.057983,268.359558 897.056885,269.895111 
	C897.014038,330.340027 897.036621,390.785004 897.059082,451.411255 
	C897.067505,451.592560 897.015320,451.951782 896.666260,452.014526 
	C895.011780,453.036011 893.475647,453.795105 892.442993,454.989563 
	C888.871887,459.120178 884.781921,461.130005 879.018555,461.120453 
	C783.056274,460.961273 687.093628,460.987823 591.131104,461.021210 
	C584.195740,461.023621 577.253662,461.684418 570.327026,461.520477 
	C563.133789,461.350220 555.957947,460.509369 548.767639,460.075226 
	C547.872864,460.021179 546.936279,460.661285 546.019043,460.979736 
	C545.380066,460.693176 544.741150,460.406555 543.854858,459.567169 
	C543.051453,458.686554 542.495483,458.358704 541.939453,458.030853 
	C541.576599,458.016479 541.298401,457.855591 541.050415,456.908386 
	C541.128967,453.266144 540.655457,450.646881 537.043213,450.009888 
	C536.726501,447.083374 536.170410,444.159607 536.136902,441.229858 
	C536.025330,431.462402 536.101257,421.692841 536.474670,411.382416 
	C536.907288,409.600433 536.970581,408.360107 537.033813,407.119781 
z"/>
<path fill="#DBDBDB" opacity="1.000000" stroke="none" 
	d="
M904.992432,269.596313 
	C912.924805,269.505219 920.899048,268.868164 928.778076,269.472565 
	C937.096680,270.110718 942.742920,274.967102 944.850281,283.908508 
	C944.410034,286.744720 944.072815,288.879822 944.071838,291.015045 
	C944.043274,352.146912 944.060547,413.278809 944.021301,474.410645 
	C944.018677,478.480591 945.595215,483.482635 939.062439,484.544067 
	C938.575256,484.623230 938.562500,486.451172 937.939758,487.081482 
	C935.852234,489.194427 933.877319,491.744720 931.307251,492.959991 
	C928.906677,494.095093 925.802551,494.004639 923.007874,494.005951 
	C825.729919,494.051361 728.451904,494.022339 631.173950,494.083740 
	C623.378357,494.088684 615.584106,494.694611 607.786743,494.945038 
	C606.483643,494.986877 605.080139,494.873474 603.873657,494.425842 
	C599.196594,492.690765 594.546753,490.870361 589.958862,488.912903 
	C588.236938,488.178253 586.711426,486.983337 585.096436,485.998260 
	C584.370728,479.310181 583.645020,472.622131 583.220703,465.471924 
	C583.522095,465.009796 583.966187,464.993408 584.438171,464.998779 
	C682.403748,465.002350 779.897400,465.008942 877.390930,464.944824 
	C879.582031,464.943359 881.772522,464.137756 884.230103,463.503387 
	C886.242676,462.825348 887.988403,462.351135 890.121338,461.903076 
	C893.645630,459.013062 898.408264,456.622681 899.559021,453.064240 
	C901.550720,446.905182 901.782959,440.029022 901.878845,433.440948 
	C902.011353,424.332306 901.143616,415.213409 901.070435,406.095978 
	C901.022705,400.144501 901.896423,394.186554 901.868713,388.233734 
	C901.831787,380.281128 901.133301,372.331940 901.080200,364.378906 
	C901.044922,359.092010 901.911804,353.799530 901.885803,348.511993 
	C901.853271,341.890167 901.071655,335.270721 901.073059,328.650360 
	C901.074402,322.196472 901.958252,315.740601 901.913391,309.289368 
	C901.839417,298.675140 901.463806,288.057129 900.928345,277.455231 
	C900.744080,273.807312 901.548706,271.141052 904.992432,269.596313 
z"/>
<path fill="#0D47DA" opacity="1.000000" stroke="none" 
	d="
M455.942169,366.709045 
	C455.338196,367.050049 454.734192,367.391022 453.900085,367.999237 
	C450.922180,367.792969 448.175598,366.915588 445.426453,366.907471 
	C411.777191,366.808258 378.127380,366.770691 344.478210,366.877289 
	C335.931000,366.904358 329.670471,363.451599 325.914978,355.858307 
	C324.853638,353.712341 324.269836,351.102631 324.256683,348.701324 
	C324.139374,327.227844 324.259766,305.753235 324.187378,284.279358 
	C324.127350,266.476807 323.772888,248.674713 323.780365,230.872528 
	C323.790588,206.570648 323.910797,182.267532 324.205292,157.967636 
	C324.340271,146.829987 332.164703,139.368439 343.366577,139.364975 
	C451.811371,139.331451 560.256165,139.329163 668.700989,139.349640 
	C678.991333,139.351578 686.455994,145.928528 687.528809,156.246506 
	C688.077576,161.524216 687.695862,166.893341 687.897461,172.214966 
	C687.984436,174.509811 688.483948,176.789047 688.948669,179.460388 
	C688.727478,183.181183 688.301636,186.512177 687.993225,189.854034 
	C687.624451,193.850067 687.356140,197.855377 686.382446,201.724121 
	C685.818848,196.175888 686.090515,190.756561 685.976074,185.345367 
	C685.787781,176.437241 685.235596,167.536804 685.047974,158.628677 
	C684.849304,149.197617 677.831421,141.988068 668.299927,141.986221 
	C559.537537,141.965118 450.775177,141.997589 342.012817,141.928360 
	C336.536255,141.924866 332.096008,144.123627 330.322754,148.786804 
	C328.081207,154.681381 326.197418,161.162033 326.198517,167.389542 
	C326.209137,227.319473 326.653595,287.249298 326.962158,347.179260 
	C327.016724,357.778351 333.275848,364.014191 344.016602,364.018829 
	C378.494110,364.033661 412.971954,363.963623 447.448517,364.143738 
	C450.284149,364.158539 453.111145,365.815247 455.942169,366.709045 
z"/>
<path fill="#C5C7D5" opacity="1.000000" stroke="none" 
	d="
M585.120056,486.340576 
	C586.711426,486.983337 588.236938,488.178253 589.958862,488.912903 
	C594.546753,490.870361 599.196594,492.690765 603.873657,494.425842 
	C605.080139,494.873474 606.483643,494.986877 607.786743,494.945038 
	C615.584106,494.694611 623.378357,494.088684 631.173950,494.083740 
	C728.451904,494.022339 825.729919,494.051361 923.007874,494.005951 
	C925.802551,494.004639 928.906677,494.095093 931.307251,492.959991 
	C933.877319,491.744720 935.852234,489.194427 937.939758,487.081482 
	C938.562500,486.451172 938.575256,484.623230 939.062439,484.544067 
	C945.595215,483.482635 944.018677,478.480591 944.021301,474.410645 
	C944.060547,413.278809 944.043274,352.146912 944.071838,291.015045 
	C944.072815,288.879822 944.410034,286.744720 944.850952,284.281433 
	C945.382141,285.895294 945.888306,287.837097 945.889709,289.779236 
	C945.933350,351.748016 945.934387,413.716797 945.924988,475.685608 
	C945.923035,488.556580 938.315063,496.191254 925.439026,496.192780 
	C817.993042,496.205536 710.547058,496.179413 603.101074,496.239014 
	C595.267822,496.243378 589.200012,493.495941 585.120056,486.340576 
z"/>
<path fill="#93A5D3" opacity="1.000000" stroke="none" 
	d="
M889.734192,461.876953 
	C887.988403,462.351135 886.242676,462.825348 883.814636,463.531708 
	C879.820007,463.550323 876.505127,463.122131 873.195801,463.161896 
	C861.425232,463.303436 849.657166,463.759094 837.887207,463.793915 
	C829.116455,463.819916 820.343628,463.167938 811.572998,463.196899 
	C798.636414,463.239594 785.701233,463.633240 772.764771,463.834259 
	C771.445801,463.854767 770.123108,463.470703 768.800781,463.461456 
	C761.023132,463.406982 753.244812,463.360229 745.467224,463.402039 
	C735.026855,463.458160 724.586792,463.690430 714.146912,463.669952 
	C706.372742,463.654694 698.598389,463.191437 690.825500,463.228333 
	C680.386780,463.277832 669.949280,463.791595 659.511536,463.782837 
	C649.074097,463.774048 638.636414,463.160675 628.199768,463.184143 
	C613.470764,463.217285 598.742554,463.592407 583.978149,463.614685 
	C583.595764,463.657867 583.249084,463.907654 582.902405,464.157410 
	C574.139160,463.947174 565.367737,463.897034 556.616882,463.446289 
	C553.217407,463.271179 549.864624,462.191528 546.254761,461.251831 
	C546.936279,460.661285 547.872864,460.021179 548.767639,460.075226 
	C555.957947,460.509369 563.133789,461.350220 570.327026,461.520477 
	C577.253662,461.684418 584.195740,461.023621 591.131104,461.021210 
	C687.093628,460.987823 783.056274,460.961273 879.018555,461.120453 
	C884.781921,461.130005 888.871887,459.120178 892.442993,454.989563 
	C893.475647,453.795105 895.011780,453.036011 896.653442,452.379944 
	C894.571228,455.747375 892.152710,458.812164 889.734192,461.876953 
z"/>
<path fill="#D3DAE9" opacity="1.000000" stroke="none" 
	d="
M890.121338,461.903076 
	C892.152710,458.812164 894.571228,455.747375 897.002563,452.317200 
	C897.015320,451.951782 897.067505,451.592560 897.330566,451.113098 
	C898.059509,448.062653 898.928284,445.492249 898.932068,442.920593 
	C899.016846,384.970581 899.006653,327.020416 899.014343,269.070251 
	C900.796875,269.170593 902.579346,269.270905 904.677124,269.483765 
	C901.548706,271.141052 900.744080,273.807312 900.928345,277.455231 
	C901.463806,288.057129 901.839417,298.675140 901.913391,309.289368 
	C901.958252,315.740601 901.074402,322.196472 901.073059,328.650360 
	C901.071655,335.270721 901.853271,341.890167 901.885803,348.511993 
	C901.911804,353.799530 901.044922,359.092010 901.080200,364.378906 
	C901.133301,372.331940 901.831787,380.281128 901.868713,388.233734 
	C901.896423,394.186554 901.022705,400.144501 901.070435,406.095978 
	C901.143616,415.213409 902.011353,424.332306 901.878845,433.440948 
	C901.782959,440.029022 901.550720,446.905182 899.559021,453.064240 
	C898.408264,456.622681 893.645630,459.013062 890.121338,461.903076 
z"/>
<path fill="#97A8C7" opacity="1.000000" stroke="none" 
	d="
M899.029297,268.662170 
	C899.006653,327.020416 899.016846,384.970581 898.932068,442.920593 
	C898.928284,445.492249 898.059509,448.062653 897.322144,450.931763 
	C897.036621,390.785004 897.014038,330.340027 897.056885,269.895111 
	C897.057983,268.359558 897.778320,266.824554 898.527344,265.151764 
	C898.942444,266.094177 898.993408,267.174133 899.029297,268.662170 
z"/>
<path fill="#CFD3DA" opacity="1.000000" stroke="none" 
	d="
M57.575581,630.209534 
	C55.749207,630.159424 54.210567,630.383362 52.671947,630.607361 
	C53.801598,627.920410 55.645931,627.203491 58.412693,628.088196 
	C59.960751,628.583252 61.629738,628.700134 64.420586,629.196716 
	C64.700157,629.908875 65.526184,632.013062 66.543968,634.605652 
	C67.869949,632.001038 68.991455,629.798096 70.112961,627.595154 
	C70.097778,636.568970 66.989548,641.912781 62.954384,641.698486 
	C65.903969,638.247559 65.699097,636.259033 60.956280,628.593567 
	C60.572472,632.427002 60.300999,635.138428 59.936794,638.776062 
	C57.181812,638.124390 52.964737,638.279480 52.211704,636.740051 
	C49.600914,631.402893 56.754147,633.424255 57.575581,630.209534 
z"/>
<path fill="#C3C7CF" opacity="1.000000" stroke="none" 
	d="
M99.839340,634.810913 
	C99.134872,638.230713 96.651230,639.428772 94.283241,638.417908 
	C92.457581,637.638489 90.490974,635.103699 90.310867,633.187439 
	C90.154976,631.528870 92.072220,628.601257 93.687759,628.056030 
	C98.163567,626.545654 99.531754,630.213379 100.470421,635.139526 
	C103.017433,630.822632 104.401360,625.072815 109.283928,628.737610 
	C111.208633,630.182312 110.608505,634.990845 111.158089,638.267578 
	C110.418213,638.355774 109.678337,638.443970 108.938469,638.532166 
	C108.644913,635.786133 108.351357,633.040100 108.081795,630.518555 
	C103.179695,628.301270 102.071648,632.153442 99.839340,634.810913 
M94.344078,636.594910 
	C95.907623,636.047668 97.471169,635.500427 99.034721,634.953247 
	C97.116539,634.010132 95.395889,633.978149 93.686165,634.099792 
	C93.595840,634.106201 93.598045,635.413147 94.344078,636.594910 
z"/>
<path fill="#0D47DA" opacity="1.000000" stroke="none" 
	d="
M800.228394,179.811127 
	C764.388672,180.015289 728.239258,180.038528 691.654236,179.992615 
	C691.857422,179.772308 692.496338,179.488419 693.134949,179.488998 
	C728.729492,179.521011 764.324097,179.576797 800.228394,179.811127 
z"/>
<path fill="#D2D5DE" opacity="1.000000" stroke="none" 
	d="
M41.482857,624.270630 
	C43.209084,624.282043 44.901226,623.834900 45.768482,624.486206 
	C47.402740,625.713501 49.433338,627.476196 49.627022,629.203735 
	C49.767956,630.460754 47.339775,632.167908 45.818497,633.373413 
	C45.165581,633.890747 43.907814,633.644775 42.694447,633.769287 
	C42.339024,635.323059 41.977837,636.902100 41.616653,638.481079 
	C41.155857,638.447021 40.695061,638.412964 40.234264,638.378906 
	C40.113331,633.691528 38.760765,629.013245 41.482857,624.270630 
M43.455811,631.775452 
	C44.823467,630.714294 46.191124,629.653198 47.558777,628.592041 
	C46.050007,627.635620 44.541237,626.679260 43.032471,625.722839 
	C42.695442,626.085327 42.358418,626.447754 42.021393,626.810242 
	C42.251591,628.387939 42.481789,629.965698 43.455811,631.775452 
z"/>
<path fill="#C9CDD5" opacity="1.000000" stroke="none" 
	d="
M123.217369,631.500671 
	C125.170097,632.882874 126.897728,633.912048 128.410721,635.194458 
	C128.533600,635.298645 127.274643,637.930969 126.507904,638.014587 
	C124.406013,638.243896 122.224152,637.740295 120.073944,637.526794 
	C120.106773,636.965942 120.139603,636.405090 120.172424,635.844238 
	C121.251640,635.690308 122.330849,635.536377 123.468414,635.374084 
	C122.316483,633.562439 120.394127,631.915039 120.434219,630.316895 
	C120.518707,626.949402 125.710732,627.022705 127.514183,629.923401 
	C126.090965,630.324402 124.513908,630.768677 123.217369,631.500671 
M123.776772,634.389343 
	C123.810799,635.075073 123.844826,635.760864 123.878853,636.446594 
	C124.329140,636.422058 124.779419,636.397461 125.229698,636.372864 
	C125.163269,635.740356 125.096832,635.107788 123.776772,634.389343 
z"/>
<path fill="#D4D7E2" opacity="1.000000" stroke="none" 
	d="
M77.025116,628.190491 
	C79.519867,628.062317 82.043770,627.662231 84.496605,627.925110 
	C85.656883,628.049438 87.454887,629.313232 87.617744,630.286133 
	C88.055145,632.898987 87.767052,635.633301 87.767052,638.319397 
	C87.231346,638.349304 86.695633,638.379272 86.159927,638.409241 
	C86.010368,636.509583 86.060966,634.563354 85.633789,632.728333 
	C85.390152,631.681824 84.367081,630.816833 83.695007,629.870117 
	C83.079651,630.867737 82.165291,631.796753 81.917046,632.878601 
	C81.516594,634.623840 81.554939,636.469849 80.659538,638.133850 
	C79.684044,635.341370 78.708549,632.548889 77.399918,629.395081 
	C77.075172,628.751526 77.061287,628.470459 77.025116,628.190491 
z"/>
<path fill="#D2D5DE" opacity="1.000000" stroke="none" 
	d="
M112.930374,629.097656 
	C113.486366,627.587708 114.199142,626.395386 114.995186,625.063782 
	C116.121956,626.355286 117.094978,627.470520 117.247192,627.644958 
	C117.247192,631.681946 117.247192,634.848938 117.247192,639.025757 
	C116.111183,637.617310 114.715439,636.460876 114.106285,634.980774 
	C113.404114,633.274780 113.396431,631.282959 112.930374,629.097656 
z"/>
<path fill="#C3C7CF" opacity="1.000000" stroke="none" 
	d="
M76.619476,628.211548 
	C77.061287,628.470459 77.075172,628.751526 77.012718,629.238037 
	C75.871735,632.194092 74.784798,634.945862 74.029770,636.857422 
	C72.310333,633.125854 72.985130,629.056946 76.619476,628.211548 
z"/>
<path fill="#97A8C7" opacity="1.000000" stroke="none" 
	d="
M898.961304,256.578918 
	C897.949829,253.520935 897.023132,250.044022 896.121460,246.140228 
	C897.113037,249.195557 898.079590,252.677765 898.961304,256.578918 
z"/>
<path fill="#93A5D3" opacity="1.000000" stroke="none" 
	d="
M537.015747,450.364929 
	C540.655457,450.646881 541.128967,453.266144 540.982422,456.668671 
	C539.642029,454.952515 538.315186,452.836243 537.015747,450.364929 
z"/>
<path fill="#0D47DA" opacity="1.000000" stroke="none" 
	d="
M453.550812,386.220886 
	C453.859802,387.828522 454.003448,389.748199 454.124023,392.061890 
	C453.862427,390.481598 453.623962,388.507263 453.550812,386.220886 
z"/>
<path fill="#93A5D3" opacity="1.000000" stroke="none" 
	d="
M536.796143,407.106812 
	C536.970581,408.360107 536.907288,409.600433 536.568481,410.922546 
	C536.207886,409.968018 536.122681,408.931671 536.060303,407.508698 
	C536.083191,407.122040 536.558411,407.093872 536.796143,407.106812 
z"/>
<path fill="#B7C3E0" opacity="1.000000" stroke="none" 
	d="
M582.882690,464.383972 
	C583.249084,463.907654 583.595764,463.657867 583.963257,463.908264 
	C583.978149,464.603424 583.972168,464.798431 583.966187,464.993408 
	C583.966187,464.993408 583.522095,465.009796 583.299927,465.010590 
	C583.077820,465.011383 582.862915,464.610535 582.882690,464.383972 
z"/>
<path fill="#97A8C7" opacity="1.000000" stroke="none" 
	d="
M894.880737,243.716171 
	C894.340149,243.512024 893.733093,243.016678 893.089111,242.206924 
	C893.639526,242.403320 894.226868,242.914154 894.880737,243.716171 
z"/>
<path fill="#93A5D3" opacity="1.000000" stroke="none" 
	d="
M542.082886,458.321136 
	C542.495483,458.358704 543.051453,458.686554 543.708862,459.336548 
	C543.282288,459.309631 542.754333,458.960541 542.082886,458.321136 
z"/>
<path fill="#0D47DA" opacity="1.000000" stroke="none" 
	d="
M804.388733,180.935577 
	C804.323120,180.991425 804.322205,180.988724 804.328125,180.994019 
	C804.334045,180.999329 804.454346,180.879745 804.388733,180.935577 
z"/>
<path fill="#0048FE" opacity="1.000000" stroke="none" 
	d="
M456.370728,366.779907 
	C453.111145,365.815247 450.284149,364.158539 447.448517,364.143738 
	C412.971954,363.963623 378.494110,364.033661 344.016602,364.018829 
	C333.275848,364.014191 327.016724,357.778351 326.962158,347.179260 
	C326.653595,287.249298 326.209137,227.319473 326.198517,167.389542 
	C326.197418,161.162033 328.081207,154.681381 330.322754,148.786804 
	C332.096008,144.123627 336.536255,141.924866 342.012817,141.928360 
	C450.775177,141.997589 559.537537,141.965118 668.299927,141.986221 
	C677.831421,141.988068 684.849304,149.197617 685.047974,158.628677 
	C685.235596,167.536804 685.787781,176.437241 685.976074,185.345367 
	C686.090515,190.756561 685.818848,196.175888 686.029419,201.903442 
	C686.309998,205.116577 686.281677,208.017838 685.993530,211.591309 
	C685.907288,213.242905 686.080872,214.222275 686.254395,215.201645 
	C686.665466,220.320297 687.340515,225.436035 687.397400,230.558624 
	C687.437195,234.141586 686.359863,237.726608 686.262512,241.323730 
	C686.077881,248.150345 686.238586,254.986282 685.975159,262.589630 
	C685.885803,265.997833 686.077026,268.634735 686.268311,271.271667 
	C686.263000,277.809540 686.257690,284.347382 685.993042,291.574371 
	C685.907288,293.242859 686.080811,294.222229 686.254395,295.201599 
	C689.177307,305.755981 684.821533,316.313141 685.977173,327.655426 
	C685.466736,334.398804 684.729492,340.390472 685.137695,346.303040 
	C685.866455,356.858368 677.755737,365.154785 666.213928,365.118256 
	C599.907837,364.908264 533.600708,365.001068 467.294006,365.089569 
	C465.227539,365.092316 463.162476,366.167297 461.096771,366.742401 
	C459.664276,366.778534 458.231781,366.814667 456.370728,366.779907 
M332.999969,298.500000 
	C333.167175,316.280487 333.333923,334.060974 333.518372,351.841278 
	C333.518982,351.901001 333.770569,351.986969 333.912842,352.008514 
	C334.068787,352.032196 334.233948,351.995270 334.419495,351.983154 
	C334.419495,288.981964 334.419495,225.980942 334.419495,162.979935 
	C333.946320,162.979324 333.473175,162.978729 333.000000,162.978119 
	C333.000000,207.818741 333.000000,252.659378 332.999969,298.500000 
z"/>
<path fill="#0D47DA" opacity="1.000000" stroke="none" 
	d="
M461.551636,366.803253 
	C463.162476,366.167297 465.227539,365.092316 467.294006,365.089569 
	C533.600708,365.001068 599.907837,364.908264 666.213928,365.118256 
	C677.755737,365.154785 685.866455,356.858368 685.137695,346.303040 
	C684.729492,340.390472 685.466736,334.398804 685.990112,328.108459 
	C686.691772,328.065613 687.442627,328.361023 687.439392,328.648132 
	C687.346924,337.059113 688.503723,345.771423 686.672668,353.799591 
	C684.602417,362.876587 676.905579,366.930786 667.201050,366.932037 
	C612.282471,366.939178 557.363953,366.938538 502.445374,366.930115 
	C488.965759,366.928070 475.486145,366.887146 461.551636,366.803253 
z"/>
<path fill="#0448E4" opacity="1.000000" stroke="none" 
	d="
M686.602661,271.094971 
	C686.077026,268.634735 685.885803,265.997833 685.979004,263.040039 
	C686.487976,265.452209 686.712463,268.185272 686.602661,271.094971 
z"/>
<path fill="#0448E4" opacity="1.000000" stroke="none" 
	d="
M686.459961,294.954559 
	C686.080811,294.222229 685.907288,293.242859 685.993469,292.029602 
	C686.390686,292.766327 686.528137,293.736908 686.459961,294.954559 
z"/>
<path fill="#0448E4" opacity="1.000000" stroke="none" 
	d="
M686.460022,214.954620 
	C686.080872,214.222275 685.907288,213.242905 685.993530,212.029663 
	C686.390686,212.766388 686.528137,213.736984 686.460022,214.954620 
z"/>
<path fill="#D6DDEF" opacity="1.000000" stroke="none" 
	d="
M584.438171,464.998779 
	C583.972168,464.798431 583.978149,464.603424 583.999023,464.114868 
	C598.742554,463.592407 613.470764,463.217285 628.199768,463.184143 
	C638.636414,463.160675 649.074097,463.774048 659.511536,463.782837 
	C669.949280,463.791595 680.386780,463.277832 690.825500,463.228333 
	C698.598389,463.191437 706.372742,463.654694 714.146912,463.669952 
	C724.586792,463.690430 735.026855,463.458160 745.467224,463.402039 
	C753.244812,463.360229 761.023132,463.406982 768.800781,463.461456 
	C770.123108,463.470703 771.445801,463.854767 772.764771,463.834259 
	C785.701233,463.633240 798.636414,463.239594 811.572998,463.196899 
	C820.343628,463.167938 829.116455,463.819916 837.887207,463.793915 
	C849.657166,463.759094 861.425232,463.303436 873.195801,463.161896 
	C876.505127,463.122131 879.820007,463.550323 883.547852,463.735535 
	C881.772522,464.137756 879.582031,464.943359 877.390930,464.944824 
	C779.897400,465.008942 682.403748,465.002350 584.438171,464.998779 
z"/>
<path fill="#000421" opacity="1.000000" stroke="none" 
	d="
M93.950630,636.354797 
	C93.598045,635.413147 93.595840,634.106201 93.686165,634.099792 
	C95.395889,633.978149 97.116539,634.010132 99.034721,634.953247 
	C97.471169,635.500427 95.907623,636.047668 93.950630,636.354797 
z"/>
<path fill="#20242B" opacity="1.000000" stroke="none" 
	d="
M43.083897,631.659424 
	C42.481789,629.965698 42.251591,628.387939 42.021393,626.810242 
	C42.358418,626.447754 42.695442,626.085327 43.032471,625.722839 
	C44.541237,626.679260 46.050007,627.635620 47.558777,628.592041 
	C46.191124,629.653198 44.823467,630.714294 43.083897,631.659424 
z"/>
<path fill="#000421" opacity="1.000000" stroke="none" 
	d="
M124.403580,634.432312 
	C125.096832,635.107788 125.163269,635.740356 125.229706,636.372864 
	C124.779419,636.397461 124.329140,636.422058 123.878853,636.446594 
	C123.844826,635.760864 123.810799,635.075073 124.403580,634.432312 
z"/>
<path fill="#0644FF" opacity="1.000000" stroke="none" 
	d="
M333.000000,298.000000 
	C333.000000,252.659378 333.000000,207.818741 333.000000,162.978119 
	C333.473175,162.978729 333.946320,162.979324 334.419495,162.979935 
	C334.419495,225.980942 334.419495,288.981964 334.419495,351.983154 
	C334.233948,351.995270 334.068787,352.032196 333.912842,352.008514 
	C333.770569,351.986969 333.518982,351.901001 333.518372,351.841278 
	C333.333923,334.060974 333.167175,316.280487 333.000000,298.000000 
z"/>
</svg>